# xmcd CD database file
#
# Track frame offsets:
#	150
#	15582
#	30860
#	46973
#	65308
#	81245
#	103502
#	128011
#	147417
#	169537
#	185900
#	206264
#	221769
#	245100
#
# Disc length: 3642 seconds
#
# Revision: 0
# Processed by: cddbd v1.5.1PL2 Copyright (c) Steve Scherf et al.
# Submitted via: CDex 1.51
#
DISCID=bf0e380e
DTITLE=Nichola Farnon - That's The Bottom Line
DYEAR=2005
DGENRE=Jazz
TTITLE0=A Beautiful Friendship
TTITLE1=Four Brothers
TTITLE2=Don't Know Why
TTITLE3=Teach Me Tonight
TTITLE4=Show Me
TTITLE5=On The Street Where You Live
TTITLE6=Can't Help Lovin' Dat Man
TTITLE7=Ain't Necessarily So
TTITLE8=Wouldn't It Be Lovely
TTITLE9=Time After Time
TTITLE10=Yes It Is
TTITLE11=The Way You Look Tonight
TTITLE12=Don't Know Why (live)
TTITLE13=The More I See You (live)
EXTD=YEAR: 2005
EXTT0=
EXTT1=
EXTT2=
EXTT3=
EXTT4=
EXTT5=
EXTT6=
EXTT7=
EXTT8=
EXTT9=
EXTT10=
EXTT11=
EXTT12=
EXTT13=
PLAYORDER=
